<svg width="22" height="26" viewBox="0 0 22 26" fill="none" xmlns="http://www.w3.org/2000/svg">
<g clip-path="url(#clip0_25_769)">
<path d="M2.71429 0C0.111607 0 -2 2.11161 -2 4.71429V20.4286C-2 23.0313 0.111607 25.1429 2.71429 25.1429H16.8571H18.4286C19.2978 25.1429 20 24.4406 20 23.5714C20 22.7022 19.2978 22 18.4286 22V18.8571C19.2978 18.8571 20 18.1549 20 17.2857V1.57143C20 0.702232 19.2978 0 18.4286 0H16.8571H2.71429ZM2.71429 18.8571H15.2857V22H2.71429C1.84509 22 1.14286 21.2978 1.14286 20.4286C1.14286 19.5594 1.84509 18.8571 2.71429 18.8571ZM4.28571 7.07143C4.28571 6.63929 4.63929 6.28572 5.07143 6.28572H14.5C14.9321 6.28572 15.2857 6.63929 15.2857 7.07143C15.2857 7.50357 14.9321 7.85714 14.5 7.85714H5.07143C4.63929 7.85714 4.28571 7.50357 4.28571 7.07143ZM5.07143 9.42857H14.5C14.9321 9.42857 15.2857 9.78214 15.2857 10.2143C15.2857 10.6464 14.9321 11 14.5 11H5.07143C4.63929 11 4.28571 10.6464 4.28571 10.2143C4.28571 9.78214 4.63929 9.42857 5.07143 9.42857Z" fill="#808080"/>
</g>
<defs>
<clipPath id="clip0_25_769">
<rect width="22" height="25.1429" fill="white"/>
</clipPath>
</defs>
</svg>
