<svg width="18" height="24" viewBox="0 0 18 24" fill="none" xmlns="http://www.w3.org/2000/svg">
<g clip-path="url(#clip0_25_767)">
<path d="M3 0C1.34531 0 0 1.34531 0 3V21C0 22.6547 1.34531 24 3 24H15C16.6547 24 18 22.6547 18 21V7.5H12C11.1703 7.5 10.5 6.82969 10.5 6V0H3ZM12 0V6H18L12 0ZM5.25 12H12.75C13.1625 12 13.5 12.3375 13.5 12.75C13.5 13.1625 13.1625 13.5 12.75 13.5H5.25C4.8375 13.5 4.5 13.1625 4.5 12.75C4.5 12.3375 4.8375 12 5.25 12ZM5.25 15H12.75C13.1625 15 13.5 15.3375 13.5 15.75C13.5 16.1625 13.1625 16.5 12.75 16.5H5.25C4.8375 16.5 4.5 16.1625 4.5 15.75C4.5 15.3375 4.8375 15 5.25 15ZM5.25 18H12.75C13.1625 18 13.5 18.3375 13.5 18.75C13.5 19.1625 13.1625 19.5 12.75 19.5H5.25C4.8375 19.5 4.5 19.1625 4.5 18.75C4.5 18.3375 4.8375 18 5.25 18Z" fill="#808080"/>
</g>
<defs>
<clipPath id="clip0_25_767">
<rect width="18" height="24" fill="white"/>
</clipPath>
</defs>
</svg>
