<svg width="16" height="15" viewBox="0 0 16 15" fill="none" xmlns="http://www.w3.org/2000/svg">
<g clip-path="url(#clip0_95_342)">
<path d="M5.09945 0.720387C4.86133 0.175465 4.23356 -0.114574 3.63363 0.0406996L0.912272 0.743825C0.374186 0.88445 0 1.34734 0 1.87468C0 9.12273 6.20345 14.9997 13.8542 14.9997C14.4108 14.9997 14.8994 14.6452 15.0479 14.1354L15.79 11.5573C15.9539 10.9889 15.6478 10.3942 15.0726 10.1686L12.1038 8.99676C11.5998 8.79754 11.0153 8.93523 10.672 9.3366L9.42269 10.7809C7.24561 9.80535 5.48291 8.13543 4.45313 6.07293L5.9777 4.89226C6.40137 4.56414 6.54671 4.01336 6.33643 3.53582L5.09945 0.723317V0.720387Z" fill="#A0A0A0"/>
</g>
<defs>
<clipPath id="clip0_95_342">
<rect width="15.8333" height="15" fill="white"/>
</clipPath>
</defs>
</svg>
