<svg width="23" height="23" viewBox="0 0 23 23" fill="none" xmlns="http://www.w3.org/2000/svg">
<circle cx="11.5" cy="11.5" r="11.5" fill="#B7B7B7"/>
<path d="M8.13382 18H5.23126V8.65292H8.13382V18ZM6.68097 7.37789C5.75283 7.37789 5 6.60912 5 5.68097C5 5.23515 5.1771 4.80759 5.49235 4.49235C5.80759 4.1771 6.23515 4 6.68097 4C7.1268 4 7.55436 4.1771 7.8696 4.49235C8.18485 4.80759 8.36195 5.23515 8.36195 5.68097C8.36195 6.60912 7.60881 7.37789 6.68097 7.37789ZM18.9972 18H16.1009V13.4499C16.1009 12.3655 16.079 10.9748 14.5918 10.9748C13.0827 10.9748 12.8514 12.153 12.8514 13.3718V18H9.95198V8.65292H12.7358V9.92794H12.7764C13.1639 9.19355 14.1105 8.41854 15.5227 8.41854C18.4603 8.41854 19.0003 10.353 19.0003 12.8655V18H18.9972Z" fill="#1F386B"/>
</svg>
