<svg width="26" height="26" viewBox="0 0 26 26" fill="none" xmlns="http://www.w3.org/2000/svg">
<path d="M0 4.875C0 3.08242 1.45742 1.625 3.25 1.625H22.75C24.5426 1.625 26 3.08242 26 4.875V21.125C26 22.9176 24.5426 24.375 22.75 24.375H3.25C1.45742 24.375 0 22.9176 0 21.125V4.875ZM16.443 10.2832C16.2145 9.94805 15.8387 9.75 15.4375 9.75C15.0363 9.75 14.6555 9.94805 14.432 10.2832L10.0141 16.7629L8.66836 15.082C8.43477 14.7926 8.08438 14.625 7.71875 14.625C7.35313 14.625 6.99766 14.7926 6.76914 15.082L3.51914 19.1445C3.22461 19.5102 3.16875 20.0129 3.37188 20.4344C3.575 20.8559 4.00156 21.125 4.46875 21.125H9.34375H10.9688H21.5312C21.9832 21.125 22.3996 20.8762 22.6078 20.475C22.816 20.0738 22.7906 19.5914 22.5367 19.2207L16.443 10.2832ZM5.6875 9.75C6.33397 9.75 6.95395 9.49319 7.41107 9.03607C7.86819 8.57895 8.125 7.95897 8.125 7.3125C8.125 6.66603 7.86819 6.04605 7.41107 5.58893C6.95395 5.13181 6.33397 4.875 5.6875 4.875C5.04103 4.875 4.42105 5.13181 3.96393 5.58893C3.50681 6.04605 3.25 6.66603 3.25 7.3125C3.25 7.95897 3.50681 8.57895 3.96393 9.03607C4.42105 9.49319 5.04103 9.75 5.6875 9.75Z" fill="#808080"/>
</svg>
