<svg width="19" height="18" viewBox="0 0 19 18" fill="none" xmlns="http://www.w3.org/2000/svg">
<g clip-path="url(#clip0_2_49)">
<path d="M6.11934 0.86463C5.83359 0.210723 5.08027 -0.137324 4.36035 0.0490044L1.09473 0.892754C0.449023 1.0615 0 1.61697 0 2.24979C0 10.9474 7.44414 17.9998 16.625 17.9998C17.293 17.9998 17.8793 17.5744 18.0574 16.9627L18.948 13.8689C19.1447 13.1869 18.7773 12.4732 18.0871 12.2025L14.5246 10.7963C13.9197 10.5572 13.2184 10.7224 12.8064 11.2041L11.3072 12.9373C8.69473 11.7666 6.57949 9.76268 5.34375 7.28768L7.17324 5.87088C7.68164 5.47713 7.85605 4.81619 7.60371 4.24315L6.11934 0.868145V0.86463Z" fill="#B7B7B7"/>
</g>
<defs>
<clipPath id="clip0_2_49">
<rect width="19" height="18" fill="white"/>
</clipPath>
</defs>
</svg>
