<svg width="34" height="21" viewBox="0 0 34 21" fill="none" xmlns="http://www.w3.org/2000/svg">
<path d="M0 3.5C0 1.56953 1.6941 0 3.77778 0H18.8889C20.9726 0 22.6667 1.56953 22.6667 3.5V17.5C22.6667 19.4305 20.9726 21 18.8889 21H3.77778C1.6941 21 0 19.4305 0 17.5V3.5ZM33.0024 1.95781C33.6163 2.26406 34 2.85469 34 3.5V17.5C34 18.1453 33.6163 18.7359 33.0024 19.0422C32.3885 19.3484 31.6448 19.3156 31.0604 18.9547L25.3938 15.4547L24.5556 14.9352V14V7V6.06484L25.3938 5.54531L31.0604 2.04531C31.6389 1.68984 32.3826 1.65156 33.0024 1.95781Z" fill="#808080"/>
</svg>
