<svg width="13" height="18" viewBox="0 0 13 18" fill="none" xmlns="http://www.w3.org/2000/svg">
<path d="M7.30234 17.5955C9.03906 15.3326 13 9.84814 13 6.76751C13 3.03128 10.0885 0 6.5 0C2.91146 0 0 3.03128 0 6.76751C0 9.84814 3.96094 15.3326 5.69766 17.5955C6.11406 18.1348 6.88594 18.1348 7.30234 17.5955ZM6.5 4.51168C7.07464 4.51168 7.62574 4.74934 8.03207 5.17239C8.43839 5.59545 8.66667 6.16923 8.66667 6.76751C8.66667 7.3658 8.43839 7.93958 8.03207 8.36263C7.62574 8.78568 7.07464 9.02335 6.5 9.02335C5.92536 9.02335 5.37426 8.78568 4.96794 8.36263C4.56161 7.93958 4.33333 7.3658 4.33333 6.76751C4.33333 6.16923 4.56161 5.59545 4.96794 5.17239C5.37426 4.74934 5.92536 4.51168 6.5 4.51168Z" fill="#A0A0A0"/>
</svg>
